<mxfile host="www.draw.io" modified="2020-02-11T07:50:01.745Z" agent="Mozilla/5.0 (Windows NT 10.0; Win64; x64) AppleWebKit/537.36 (KHTML, like Gecko) Chrome/80.0.3987.87 Safari/537.36" etag="QQQ0h2NPI0J6vIM1n5IS" version="12.6.7" type="github">
  <diagram id="cZXRidXEHzPux_JF5TD2" name="Page-1">
    <mxGraphModel dx="782" dy="476" grid="1" gridSize="10" guides="1" tooltips="1" connect="1" arrows="1" fold="1" page="1" pageScale="1" pageWidth="2339" pageHeight="3300" math="0" shadow="0">
      <root>
        <mxCell id="0"/>
        <mxCell id="1" parent="0"/>
        <mxCell id="doo729Usdz_mEmaZW31Z-1" value="横线、扛肩" style="text;html=1;strokeColor=none;fillColor=none;align=center;verticalAlign=middle;whiteSpace=wrap;rounded=0;" vertex="1" parent="1">
          <mxGeometry x="100" y="50" width="110" height="20" as="geometry"/>
        </mxCell>
        <mxCell id="doo729Usdz_mEmaZW31Z-2" value="" style="endArrow=classic;html=1;" edge="1" parent="1">
          <mxGeometry width="50" height="50" relative="1" as="geometry">
            <mxPoint x="60" y="110" as="sourcePoint"/>
            <mxPoint x="150" y="90" as="targetPoint"/>
          </mxGeometry>
        </mxCell>
        <mxCell id="doo729Usdz_mEmaZW31Z-3" value="" style="endArrow=classic;html=1;" edge="1" parent="1">
          <mxGeometry width="50" height="50" relative="1" as="geometry">
            <mxPoint x="170" y="90" as="sourcePoint"/>
            <mxPoint x="190" y="100" as="targetPoint"/>
          </mxGeometry>
        </mxCell>
        <mxCell id="doo729Usdz_mEmaZW31Z-4" value="" style="endArrow=classic;html=1;" edge="1" parent="1">
          <mxGeometry width="50" height="50" relative="1" as="geometry">
            <mxPoint x="180" y="120" as="sourcePoint"/>
            <mxPoint x="160" y="110" as="targetPoint"/>
          </mxGeometry>
        </mxCell>
      </root>
    </mxGraphModel>
  </diagram>
</mxfile>
